<mxfile host="app.diagrams.net" agent="Mozilla/5.0 (Windows NT 10.0; Win64; x64; rv:128.0) Gecko/20100101 Firefox/128.0" version="27.0.3">
  <diagram name="Page-1" id="ZV-eH9ly_eAngFieTXhK">
    <mxGraphModel dx="733" dy="685" grid="1" gridSize="10" guides="1" tooltips="1" connect="1" arrows="1" fold="1" page="1" pageScale="1" pageWidth="850" pageHeight="1100" math="0" shadow="0">
      <root>
        <mxCell id="0" />
        <mxCell id="1" parent="0" />
        <mxCell id="4j_uqbUAIwsF3KKoclke-39" value="&amp;nbsp;Resources" style="rounded=0;whiteSpace=wrap;html=1;align=left;verticalAlign=top;" vertex="1" parent="1">
          <mxGeometry x="140" y="350" width="320" height="230" as="geometry" />
        </mxCell>
        <mxCell id="4j_uqbUAIwsF3KKoclke-8" value="&lt;div align=&quot;left&quot;&gt;&amp;nbsp;Points of Interest&lt;/div&gt;" style="rounded=0;whiteSpace=wrap;html=1;align=left;verticalAlign=top;" vertex="1" parent="1">
          <mxGeometry x="140" y="230" width="320" height="110" as="geometry" />
        </mxCell>
        <mxCell id="4j_uqbUAIwsF3KKoclke-1" value="&lt;div align=&quot;left&quot;&gt;&amp;nbsp;Search&lt;/div&gt;" style="rounded=1;whiteSpace=wrap;html=1;align=left;" vertex="1" parent="1">
          <mxGeometry x="160" y="200" width="280" height="20" as="geometry" />
        </mxCell>
        <mxCell id="4j_uqbUAIwsF3KKoclke-5" value="Ruined Cities" style="rounded=1;whiteSpace=wrap;html=1;" vertex="1" parent="1">
          <mxGeometry x="160" y="260" width="80" height="20" as="geometry" />
        </mxCell>
        <mxCell id="4j_uqbUAIwsF3KKoclke-6" value="Caves" style="rounded=1;whiteSpace=wrap;html=1;" vertex="1" parent="1">
          <mxGeometry x="160" y="300" width="80" height="20" as="geometry" />
        </mxCell>
        <mxCell id="4j_uqbUAIwsF3KKoclke-7" value="Temples" style="rounded=1;whiteSpace=wrap;html=1;" vertex="1" parent="1">
          <mxGeometry x="260" y="300" width="80" height="20" as="geometry" />
        </mxCell>
        <mxCell id="4j_uqbUAIwsF3KKoclke-9" value="Towers" style="rounded=1;whiteSpace=wrap;html=1;" vertex="1" parent="1">
          <mxGeometry x="360" y="260" width="80" height="20" as="geometry" />
        </mxCell>
        <mxCell id="4j_uqbUAIwsF3KKoclke-10" value="Settlements" style="rounded=1;whiteSpace=wrap;html=1;" vertex="1" parent="1">
          <mxGeometry x="260" y="260" width="80" height="20" as="geometry" />
        </mxCell>
        <mxCell id="4j_uqbUAIwsF3KKoclke-11" value="Wonders" style="rounded=1;whiteSpace=wrap;html=1;" vertex="1" parent="1">
          <mxGeometry x="360" y="300" width="80" height="20" as="geometry" />
        </mxCell>
        <mxCell id="4j_uqbUAIwsF3KKoclke-13" value="Monsters" style="rounded=1;whiteSpace=wrap;html=1;" vertex="1" parent="1">
          <mxGeometry x="260" y="380" width="80" height="20" as="geometry" />
        </mxCell>
        <mxCell id="4j_uqbUAIwsF3KKoclke-14" value="Wild Animals" style="rounded=1;whiteSpace=wrap;html=1;" vertex="1" parent="1">
          <mxGeometry x="160" y="380" width="80" height="20" as="geometry" />
        </mxCell>
        <mxCell id="4j_uqbUAIwsF3KKoclke-15" value="Hieroglyphs" style="rounded=1;whiteSpace=wrap;html=1;" vertex="1" parent="1">
          <mxGeometry x="360" y="380" width="80" height="20" as="geometry" />
        </mxCell>
        <mxCell id="4j_uqbUAIwsF3KKoclke-19" value="&lt;div align=&quot;left&quot;&gt;&amp;nbsp;Miscellaneous&lt;br&gt;&lt;/div&gt;" style="rounded=0;whiteSpace=wrap;html=1;align=left;verticalAlign=top;" vertex="1" parent="1">
          <mxGeometry x="140" y="590" width="320" height="110" as="geometry" />
        </mxCell>
        <mxCell id="4j_uqbUAIwsF3KKoclke-20" value="Traveler&#39;s Fruit" style="rounded=1;whiteSpace=wrap;html=1;" vertex="1" parent="1">
          <mxGeometry x="260" y="620" width="80" height="20" as="geometry" />
        </mxCell>
        <mxCell id="4j_uqbUAIwsF3KKoclke-21" value="Jakyls Dens" style="rounded=1;whiteSpace=wrap;html=1;" vertex="1" parent="1">
          <mxGeometry x="160" y="620" width="80" height="20" as="geometry" />
        </mxCell>
        <mxCell id="4j_uqbUAIwsF3KKoclke-22" value="Temples" style="rounded=1;whiteSpace=wrap;html=1;" vertex="1" parent="1">
          <mxGeometry x="360" y="620" width="80" height="20" as="geometry" />
        </mxCell>
        <mxCell id="4j_uqbUAIwsF3KKoclke-23" value="Stick" style="rounded=1;whiteSpace=wrap;html=1;" vertex="1" parent="1">
          <mxGeometry x="260" y="660" width="80" height="20" as="geometry" />
        </mxCell>
        <mxCell id="4j_uqbUAIwsF3KKoclke-24" value="Wild Foods" style="rounded=1;whiteSpace=wrap;html=1;" vertex="1" parent="1">
          <mxGeometry x="160" y="660" width="80" height="20" as="geometry" />
        </mxCell>
        <mxCell id="4j_uqbUAIwsF3KKoclke-25" value="Flint" style="rounded=1;whiteSpace=wrap;html=1;" vertex="1" parent="1">
          <mxGeometry x="360" y="660" width="80" height="20" as="geometry" />
        </mxCell>
        <mxCell id="4j_uqbUAIwsF3KKoclke-26" value="Trees" style="rounded=1;whiteSpace=wrap;html=1;" vertex="1" parent="1">
          <mxGeometry x="260" y="420" width="80" height="20" as="geometry" />
        </mxCell>
        <mxCell id="4j_uqbUAIwsF3KKoclke-27" value="Fibers" style="rounded=1;whiteSpace=wrap;html=1;" vertex="1" parent="1">
          <mxGeometry x="160" y="420" width="80" height="20" as="geometry" />
        </mxCell>
        <mxCell id="4j_uqbUAIwsF3KKoclke-28" value="Ores" style="rounded=1;whiteSpace=wrap;html=1;" vertex="1" parent="1">
          <mxGeometry x="360" y="420" width="80" height="20" as="geometry" />
        </mxCell>
        <mxCell id="4j_uqbUAIwsF3KKoclke-29" value="Stone" style="rounded=1;whiteSpace=wrap;html=1;" vertex="1" parent="1">
          <mxGeometry x="260" y="460" width="80" height="20" as="geometry" />
        </mxCell>
        <mxCell id="4j_uqbUAIwsF3KKoclke-30" value="Sand" style="rounded=1;whiteSpace=wrap;html=1;" vertex="1" parent="1">
          <mxGeometry x="160" y="460" width="80" height="20" as="geometry" />
        </mxCell>
        <mxCell id="4j_uqbUAIwsF3KKoclke-31" value="Clay" style="rounded=1;whiteSpace=wrap;html=1;" vertex="1" parent="1">
          <mxGeometry x="360" y="460" width="80" height="20" as="geometry" />
        </mxCell>
        <mxCell id="4j_uqbUAIwsF3KKoclke-32" value="Flower" style="rounded=1;whiteSpace=wrap;html=1;" vertex="1" parent="1">
          <mxGeometry x="260" y="500" width="80" height="20" as="geometry" />
        </mxCell>
        <mxCell id="4j_uqbUAIwsF3KKoclke-33" value="Berry" style="rounded=1;whiteSpace=wrap;html=1;" vertex="1" parent="1">
          <mxGeometry x="160" y="500" width="80" height="20" as="geometry" />
        </mxCell>
        <mxCell id="4j_uqbUAIwsF3KKoclke-34" value="Mushroom" style="rounded=1;whiteSpace=wrap;html=1;" vertex="1" parent="1">
          <mxGeometry x="360" y="500" width="80" height="20" as="geometry" />
        </mxCell>
        <mxCell id="4j_uqbUAIwsF3KKoclke-35" value="Fisk Lake" style="rounded=1;whiteSpace=wrap;html=1;" vertex="1" parent="1">
          <mxGeometry x="260" y="540" width="80" height="20" as="geometry" />
        </mxCell>
        <mxCell id="4j_uqbUAIwsF3KKoclke-36" value="Fish Bait" style="rounded=1;whiteSpace=wrap;html=1;" vertex="1" parent="1">
          <mxGeometry x="160" y="540" width="80" height="20" as="geometry" />
        </mxCell>
        <mxCell id="4j_uqbUAIwsF3KKoclke-37" value="Fist Ocean" style="rounded=1;whiteSpace=wrap;html=1;" vertex="1" parent="1">
          <mxGeometry x="360" y="540" width="80" height="20" as="geometry" />
        </mxCell>
        <mxCell id="4j_uqbUAIwsF3KKoclke-40" value="Save Filters" style="rounded=1;whiteSpace=wrap;html=1;" vertex="1" parent="1">
          <mxGeometry x="260" y="720" width="80" height="60" as="geometry" />
        </mxCell>
        <mxCell id="4j_uqbUAIwsF3KKoclke-41" value="Load Filters" style="rounded=1;whiteSpace=wrap;html=1;" vertex="1" parent="1">
          <mxGeometry x="160" y="720" width="80" height="60" as="geometry" />
        </mxCell>
        <mxCell id="4j_uqbUAIwsF3KKoclke-42" value="Reset Filters" style="rounded=1;whiteSpace=wrap;html=1;" vertex="1" parent="1">
          <mxGeometry x="360" y="720" width="80" height="60" as="geometry" />
        </mxCell>
        <mxCell id="4j_uqbUAIwsF3KKoclke-43" value="Show All" style="rounded=1;whiteSpace=wrap;html=1;" vertex="1" parent="1">
          <mxGeometry x="540" y="160" width="80" height="60" as="geometry" />
        </mxCell>
        <mxCell id="4j_uqbUAIwsF3KKoclke-44" value="Hide All" style="rounded=1;whiteSpace=wrap;html=1;" vertex="1" parent="1">
          <mxGeometry x="530" y="270" width="80" height="60" as="geometry" />
        </mxCell>
      </root>
    </mxGraphModel>
  </diagram>
</mxfile>
